<svg xmlns="http://www.w3.org/2000/svg" viewBox="0 0 341 231.01"><defs><clipPath id="a" transform="translate(-12 -12.19)"><path d="M145 77c3.33 0 6 14 8.7 15.87s17.21.06 18.24 3.14-11.85 9.84-12.88 12.92 5.29 15.92 2.59 17.82-13.32-7.9-16.65-7.9-13.95 9.81-16.65 7.9 3.65-14.75 2.59-17.82S117 99.09 118.06 96s15.54-1.23 18.24-3.14S141.66 77 145 77zm95.24 58.68h-18.83a4.18 4.18 0 1 1 0-8.36h18.83a4.18 4.18 0 1 1 0 8.36zm-4.18 26.78a4.39 4.39 0 0 1-3.77 2.1 3.77 3.77 0 0 1-2.09-.42l-16.32-9.63a4.62 4.62 0 0 1-1.67-5.85c.83-2.1 3.76-2.52 5.86-1.68l16.31 9.63a4.22 4.22 0 0 1 1.68 5.85zm-22.6 23a3.81 3.81 0 0 1-2.09.41 5 5 0 0 1-3.76-2.09l-9.61-16.3a4.31 4.31 0 0 1 7.53-4.18l9.63 16.32a4.24 4.24 0 0 1-1.7 5.86zm-26.78 3.76a4.18 4.18 0 1 1-8.36 0v-18.81a4.18 4.18 0 1 1 8.36 0zm-20.08-21.74l-9.21 16.32a4.37 4.37 0 0 1-3.76 2.09 3.81 3.81 0 0 1-2.09-.41 4.64 4.64 0 0 1-1.68-5.86l9.63-16.32a4.62 4.62 0 0 1 5.85-1.67 4.48 4.48 0 0 1 1.26 5.85zm-34.31-2.92a5 5 0 0 1-3.77-2.1 4.23 4.23 0 0 1 1.68-5.85l16.32-9.61a4.31 4.31 0 0 1 4.18 7.53l-16.32 9.63a3.12 3.12 0 0 1-2.09.4zm81.59-56.07l16.32-9.63a4.31 4.31 0 1 1 4.18 7.53L218.07 116a3.79 3.79 0 0 1-2.1.42 5 5 0 0 1-3.76-2.1 5.16 5.16 0 0 1 1.67-5.83zM182.5 52a79.5 79.5 0 1 0 79.5 79.5A79.47 79.47 0 0 0 182.5 52z"/></clipPath><clipPath transform="translate(-12 -12.19)"><path d="M0 0h365v256H0z"/></clipPath><clipPath id="b" transform="translate(-12 -12.19)"><path d="M256 50.82l4.54-11.94c43 21.18 72.5 57.75 86.88 90.67a5.38 5.38 0 0 1 0 5c-15.05 34.74-46.62 73.47-92.94 94.25l-4.72-11.69c41.67-18.79 70.45-53.18 85-84.66-13.86-29.83-40.5-62.34-78.76-81.63zm-146.9 0c-38.31 19.29-64.95 51.8-78.8 81.68 14.59 31.48 43.37 65.87 85 84.66l-4.76 11.78c-46.29-20.63-77.86-59.05-92.9-93.49a5.38 5.38 0 0 1 0-5C32 97.18 61.51 60.33 104.55 39z"/></clipPath></defs><g clip-path="url(#a)"><path d="M86 34.81h169v169H86z"/></g><g clip-path="url(#b)"><path d="M0 21.69h341v200.06H0z"/></g><g><path d="M126.84 222.79l-3.71 10.29-2.38-.86 3.72-10.29zm-1.19-5.26a1.57 1.57 0 0 1 .85-.92 1.63 1.63 0 0 1 2.18.79 1.52 1.52 0 0 1 .06 1.25 1.58 1.58 0 0 1-.85.94 1.65 1.65 0 0 1-2.24-2.06zM129.32 223.61l2.43.73-.3 1a4.16 4.16 0 0 1 3.24-.4 3.8 3.8 0 0 1 2.51 2 4.91 4.91 0 0 1-.09 3.46l-1.93 6.42-2.43-.73 1.76-5.85a4 4 0 0 0 .22-2.27 1.83 1.83 0 0 0-1.35-1.06 2 2 0 0 0-1.95.28 5.75 5.75 0 0 0-1.32 2.59l-1.52 5.06-2.43-.74zM155 229.83l2.5.44-1.89 10.73-2.5-.44.2-1.13a4.86 4.86 0 0 1-7-1.41 6.06 6.06 0 0 1-.72-4.37 5.84 5.84 0 0 1 2.16-3.78 4.71 4.71 0 0 1 3.91-1 4.65 4.65 0 0 1 3.1 2.15zm-6.85 4.31a3.79 3.79 0 0 0 .38 2.66 2.8 2.8 0 0 0 2 1.37 2.94 2.94 0 0 0 2.41-.56 4.16 4.16 0 0 0 .88-5 3 3 0 0 0-4.36-.76 3.67 3.67 0 0 0-1.3 2.29zM161.28 230.71l2.31 6.47 3.71-7 2.47 7.48 3.36-6 2.87.34-6.72 11.22-2.43-7.28-3.67 6.75-4.68-12.2zM186.35 238h-7.84a3.31 3.31 0 0 0 .86 2.15 2.71 2.71 0 0 0 2 .8 2.64 2.64 0 0 0 1.56-.44 6.31 6.31 0 0 0 1.39-1.66l2.13 1.2a8.37 8.37 0 0 1-1.05 1.44 5.39 5.39 0 0 1-1.19 1 4.39 4.39 0 0 1-1.36.56 6.59 6.59 0 0 1-1.58.18 5.18 5.18 0 0 1-3.93-1.59 5.93 5.93 0 0 1-1.46-4.21 6.06 6.06 0 0 1 1.46-4.2 5.48 5.48 0 0 1 7.66 0 6 6 0 0 1 1.37 4.24zm-2.59-2a2.62 2.62 0 0 0-3.4-1.89 2.31 2.31 0 0 0-.74.4 2.47 2.47 0 0 0-.57.63 2.67 2.67 0 0 0-.36.84zM195.05 237a5.46 5.46 0 0 1 1.27-4.19 6 6 0 0 1 8.24-.85 5.84 5.84 0 0 1 .85 8.18 5.73 5.73 0 0 1-4 2.08 5.54 5.54 0 0 1-4.28-1.24 5.69 5.69 0 0 1-2.08-3.98zm2.58-.23a3.65 3.65 0 0 0 1.14 2.49 3.41 3.41 0 0 0 4.71-.48 4.09 4.09 0 0 0-.53-5.07 3.35 3.35 0 0 0-4.69.49 3.48 3.48 0 0 0-.63 2.52zM211.08 232l1.39 8.47-2.5.41-1.4-8.47-.88.15-.39-2.33.89-.15-.69-4.16a4.61 4.61 0 0 1 .24-3 3.5 3.5 0 0 1 2.64-1.64 5 5 0 0 1 1.74.11l.42 2.55-.28-.09a3 3 0 0 0-1.39-.19.9.9 0 0 0-.82.62 4.43 4.43 0 0 0 .06 1.83l.59 3.56 2.71-.44.38 2.32zM228.48 225.52l2.45-.66 2.85 10.57-2.46.65L231 235a4.86 4.86 0 0 1-6.91 1.67 6.07 6.07 0 0 1-2.51-3.65 5.86 5.86 0 0 1 .36-4.34 4.71 4.71 0 0 1 3.13-2.54 4.64 4.64 0 0 1 3.71.63zm-4.38 6.81a3.86 3.86 0 0 0 1.48 2.25 2.74 2.74 0 0 0 2.37.4 2.9 2.9 0 0 0 1.94-1.52 4.17 4.17 0 0 0-1.32-4.9 2.87 2.87 0 0 0-2.43-.36 2.77 2.77 0 0 0-1.84 1.52 3.63 3.63 0 0 0-.2 2.61zM233.27 215.71l6 18-2.4.79-6-18zM238.07 214l6.55 17.8-2.37.87-6.55-17.8zM114.29 33.36l3.32-1.16.46 1.33a7.42 7.42 0 0 1 1.17-1.93 4.19 4.19 0 0 1 1.68-1 4.66 4.66 0 0 1 4.6.78 5.25 5.25 0 0 1 3.49-3.6q4.86-1.7 6.91 4.2l3.08 8.88-3.32 1.14-2.78-8a6.6 6.6 0 0 0-1.52-2.75 1.94 1.94 0 0 0-2-.28 2.28 2.28 0 0 0-1.64 1.73 6.92 6.92 0 0 0 .53 3.54l2.58 7.42-3.33 1.16-2.77-7.93q-1.34-3.84-3.55-3.07a2.37 2.37 0 0 0-1.68 1.76 7 7 0 0 0 .51 3.53l2.59 7.42-3.32 1.16zM137.83 18.77a2.18 2.18 0 0 1 .29-1.7 2.29 2.29 0 0 1 3.15-.74 2.16 2.16 0 0 1 1 1.42 2.19 2.19 0 0 1-.28 1.73 2.16 2.16 0 0 1-1.42 1 2.19 2.19 0 0 1-1.73-.28 2.26 2.26 0 0 1-1.01-1.43zm5.38 5.23l3.45 14.82-3.43.8-3.45-14.83zM148.54 23l3.47-.57.22 1.34a6.92 6.92 0 0 1 1.47-1.65 3.87 3.87 0 0 1 1.72-.68 5.62 5.62 0 0 1 3 .42l-1.06 3.43a3.43 3.43 0 0 0-2-.39c-1.89.32-2.6 1.9-2.12 4.76l1.29 7.78L151 38zM160.63 14.69a2.14 2.14 0 0 1 .51-1.65 2.28 2.28 0 0 1 3.21-.33 2.14 2.14 0 0 1 .83 1.53 2.29 2.29 0 0 1-2 2.52 2.24 2.24 0 0 1-1.69-.51 2.21 2.21 0 0 1-.86-1.56zm4.66 5.89l1.53 15.14-3.49.35-1.54-15.14zM179.62 22.46l-2.84 1.65c-.5-.91-1.08-1.36-1.76-1.34a1.21 1.21 0 0 0-.82.36 1.08 1.08 0 0 0-.31.83q0 .87 2.1 1.65a12.3 12.3 0 0 1 3.84 2.08 3.78 3.78 0 0 1 1.08 2.69 4.8 4.8 0 0 1-1.49 3.75 5.82 5.82 0 0 1-9.31-2l2.94-1.5a6.32 6.32 0 0 0 1 1.35 2.18 2.18 0 0 0 1.55.54c1.19 0 1.76-.61 1.72-1.69 0-.63-.51-1.19-1.44-1.7l-1.08-.47-1.1-.48a6.42 6.42 0 0 1-2.21-1.42 3.67 3.67 0 0 1-.89-2.42 4.35 4.35 0 0 1 1.24-3.34 4.77 4.77 0 0 1 3.33-1.42 4.61 4.61 0 0 1 4.45 2.88zM196.71 21.08l-.21 4.67a8.5 8.5 0 0 0-2.06-2.12 4.15 4.15 0 0 0-2.18-.65 4.31 4.31 0 0 0-3.35 1.24 4.86 4.86 0 0 0-1.47 3.42 5 5 0 0 0 1.11 3.57 4.28 4.28 0 0 0 3.2 1.52 4.43 4.43 0 0 0 2.26-.45 8.79 8.79 0 0 0 2.29-2l-.21 4.72a9.2 9.2 0 0 1-4.32.91 8.15 8.15 0 0 1-5.8-2.54 7.59 7.59 0 0 1-2.12-5.8 7.72 7.72 0 0 1 2.66-5.64 8.14 8.14 0 0 1 6-2.08 8.84 8.84 0 0 1 4.2 1.23zM204.68 21.22L203 36.33l-3.49-.4 1.73-15.12zm-3.3-6.75a2.24 2.24 0 0 1 .85-1.51 2.29 2.29 0 0 1 3.7 2 2.3 2.3 0 0 1-2.53 2 2.32 2.32 0 0 1-2-2.56zM222.25 33l-10.7-2.1a4.65 4.65 0 0 0 .62 3.17 3.75 3.75 0 0 0 2.51 1.6 3.64 3.64 0 0 0 2.25-.19 9 9 0 0 0 2.33-1.9l2.59 2.19a11.23 11.23 0 0 1-1.85 1.72 7.74 7.74 0 0 1-1.87 1 6.85 6.85 0 0 1-2 .41 9.5 9.5 0 0 1-2.21-.18 7.17 7.17 0 0 1-4.95-3.2 8.22 8.22 0 0 1-.89-6.13 8.42 8.42 0 0 1 3.08-5.35 6.89 6.89 0 0 1 5.7-1.04 6.82 6.82 0 0 1 4.8 3.12 8.4 8.4 0 0 1 .77 6.15zm-3-3.51a3.37 3.37 0 0 0-2.94-3.45 3.87 3.87 0 0 0-1.22 0 3.53 3.53 0 0 0-1.11.36 3.63 3.63 0 0 0-.95.71 4 4 0 0 0-.71 1.06zM229.22 26.15l3.37 1.07-.42 1.34a5.74 5.74 0 0 1 4.51-.5 5.24 5.24 0 0 1 3.44 2.84c.53 1.17.48 2.77-.17 4.82l-2.81 8.89-3.37-1.06 2.56-8.11a5.53 5.53 0 0 0 .34-3.15 2.51 2.51 0 0 0-1.85-1.5 2.72 2.72 0 0 0-2.72.35 8 8 0 0 0-1.88 3.59l-2.21 7-3.37-1.06zM249.19 36.45l-4.54 11-3.25-1.34 4.53-11-1.39-.57 1.25-3 1.39.57 2.12-5.16 3.25 1.34-2.12 5.16 2.53 1-1.25 3z" transform="translate(-12 -12.19)"/></g></svg>